<?xml version="1.0" encoding="UTF-8"?>
<svg id="Layer_1" data-name="Layer 1" xmlns="http://www.w3.org/2000/svg" viewBox="0 0 700 700">
  <path d="m98.96,426.71l-1.12,1.12c-.03,19.6,16.18,35.31,35.22,35.34l84,.15c19.6.03,35.31-16.18,35.34-35.22l-1.12-1.12.56-1.12-67.96-205.08c5.05-1.67,8.97-5.02,11.78-9.5l105.81,18.67v1.68c-.03,16.8,8.34,31.37,21.21,40.36l-.49,274.96-126-.22-.07,42,308,.55.07-41.44-126-.22.49-274.96c8.41-6.15,15.15-15.09,18.52-25.17l105.25,18.67c1.67,6.72,6.7,12.89,13.41,15.7l-67.56,200.36.56,1.12-1.12,1.12c-.03,19.6,16.18,35.31,35.22,35.34l84,.15c19.6.03,35.31-16.18,35.34-35.22l-.55-1.68.56-1.12-66.84-203.4c4.49-2.79,7.85-7.83,8.98-13.43l1.13-6.72-14-2.26-1.13,6.72c-.57,3.92-3.93,6.15-7.85,5.59-3.92-.57-6.15-3.93-5.59-7.85l1.13-6.72-118.12-20.93v-1.12c.03-15.68-7.78-30.25-20.09-39.23,5.09-31.35,32.02-54.82,64.5-54.76h.56s5.06-11.75,5.06-11.75c-26.27-26.37-61.53-40.99-99.05-41.06-37.52-.07-72.83,14.43-99.19,40.7l5.02,11.77c32.48.06,59.32,23.63,64.3,54.99-7.85,6.15-13.47,13.98-16.84,23.49l-118.12-20.93-1.13,6.72c-.57,3.92-3.93,6.15-7.85,5.59-3.92-.57-6.15-3.93-5.59-7.85l1.13-6.72-14-2.26-1.13,6.72c-1.14,8.96,3.33,17.92,10.6,21.86l-69.25,206.52v1.12Zm384.02,79.09c-8.96-.02-16.79-6.19-20.14-14.04l123.76.22c-2.82,8.39-10.67,13.98-19.63,13.97l-84-.15h0Zm42.93-209.36l59.6,181.55-120.4-.21,60.8-181.33Zm-97.69-170.97c-30.25,6.66-54.37,30.14-61.71,60.37-2.8-1.12-5.6-1.69-8.96-2.25l.11-63.28-14-.02-.11,63.28c-3.36.55-6.16,1.11-9.52,2.22-6.67-29.69-30.71-53.82-60.93-60.03,22.43-17.32,49.33-26.79,77.89-26.74,28,.05,55.42,9.06,77.23,26.46h0Zm61.94,435.79l-.02,14-280-.5.02-14,280,.5Zm-153.97-14.27l.48-268.24c4.48,1.69,8.96,2.25,14,2.26s9.52-1.1,14-2.21l-.48,268.24-28-.05Zm-20.72-314.76c.03-19.6,16.3-35.25,35.34-35.22,19.04.03,35.25,15.18,35.22,34.78-.03,19.6-16.3,35.25-35.34,35.22-19.04-.03-35.25-15.18-35.22-34.78Zm-79.86,189.14l-120.4-.21,60.8-181.33,59.6,181.55Zm-102.53,27.82c-8.96-.02-16.79-6.19-20.13-14.04l123.76.22c-2.82,8.39-10.67,13.98-19.63,13.97l-84-.15h0Z"/>
</svg>