<?xml version="1.0" encoding="UTF-8"?>
<svg width="700pt" height="700pt" version="1.1" viewBox="0 0 700 700" xmlns="http://www.w3.org/2000/svg" xmlns:xlink="http://www.w3.org/1999/xlink">
 <defs>
  <symbol id="x" overflow="visible">
   <path d="m0.03125 0h-0.03125v-0.015625-0.015625c0.0078125-0.0078125 0.019531-0.015625 0.03125-0.015625v0.015625h-0.015625v0.015625 0.015625h0.015625v-0.015625z"/>
  </symbol>
  <symbol id="c" overflow="visible">
   <path d="m0.03125-0.015625c0-0.0078125-0.0078125-0.015625-0.015625-0.015625v0.015625 0.015625h-0.015625v-0.03125h0.015625 0.015625z"/>
  </symbol>
  <symbol id="a" overflow="visible">
   <path d="m0.03125-0.015625h-0.015625v0.015625h0.015625v-0.015625 0.015625h-0.015625-0.015625v-0.015625l0.015625-0.015625c0.0078125 0 0.015625 0.0078125 0.015625 0.015625zm0 0h-0.015625v-0.015625 0.015625z"/>
  </symbol>
  <symbol id="b" overflow="visible">
   <path d="m0.015625-0.015625v0.015625l0.015625-0.015625zm0.015625 0v0.015625h-0.015625-0.015625v-0.015625h0.015625 0.015625-0.015625v-0.015625h-0.015625v0.015625-0.015625h0.015625 0.015625v0.015625z"/>
  </symbol>
  <symbol id="e" overflow="visible">
   <path d="m0.015625-0.046875v0.015625h0.015625-0.015625v0.015625 0.015625h0.015625-0.015625-0.015625v-0.015625-0.03125z"/>
  </symbol>
  <symbol id="i" overflow="visible">
   <path d="m0.03125-0.03125v-0.015625 0.046875h-0.015625-0.015625v-0.015625l0.015625-0.015625h0.015625zm-0.015625 0.03125 0.015625-0.015625h-0.015625v-0.015625 0.015625 0.015625z"/>
  </symbol>
  <symbol id="m" overflow="visible">
   <path d="m0.015625 0h0.015625v-0.015625c0-0.0078125-0.0078125-0.015625-0.015625-0.015625v0.015625 0.015625zm0-0.03125h0.015625v0.015625 0.015625h-0.015625-0.015625v-0.046875h0.015625z"/>
  </symbol>
  <symbol id="h" overflow="visible">
   <path d="m0-0.03125h0.015625v0.015625l0.015625-0.015625-0.015625 0.03125v0.015625h-0.015625v-0.015625h0.015625z"/>
  </symbol>
  <symbol id="l" overflow="visible">
   <path d="m0.03125-0.03125h-0.015625v0.015625 0.015625h0.015625v-0.015625-0.015625zm0-0.015625v0.015625c0.0078125 0 0.015625 0.0078125 0.015625 0.015625l-0.015625 0.015625h-0.03125v-0.015625-0.015625c0.0078125-0.0078125 0.019531-0.015625 0.03125-0.015625z"/>
  </symbol>
  <symbol id="w" overflow="visible">
   <path d="m0-0.046875h0.015625v0.046875h-0.015625z"/>
  </symbol>
  <symbol id="k" overflow="visible">
   <path d="m0-0.046875h0.015625v0.03125l0.015625-0.015625-0.015625 0.015625 0.015625 0.015625-0.015625-0.015625v0.015625h-0.015625z"/>
  </symbol>
  <symbol id="g" overflow="visible">
   <path d="m0.03125-0.03125v0.015625c0-0.0078125-0.0078125-0.015625-0.015625-0.015625v0.015625h0.015625v0.015625h-0.015625-0.015625v-0.015625 0.015625h0.015625v-0.015625h-0.015625v-0.015625h0.015625 0.015625z"/>
  </symbol>
  <symbol id="f" overflow="visible">
   <path d="m0.03125-0.015625v0.015625-0.015625h-0.015625v-0.015625 0.015625 0.015625h-0.015625v-0.03125h0.015625 0.015625v0.015625z"/>
  </symbol>
  <symbol id="j" overflow="visible">
   <path d="m0-0.046875h0.015625c0.0078125 0 0.015625 0.0078125 0.015625 0.015625v0.015625h-0.015625v0.015625h-0.015625zm0.015625 0.015625v0.015625h0.015625v-0.015625h-0.015625z"/>
  </symbol>
  <symbol id="d" overflow="visible">
   <path d="m0.015625-0.03125v0.015625 0.015625l0.015625-0.015625h-0.015625v-0.015625zm0 0c0.0078125 0 0.015625 0.0078125 0.015625 0.015625v0.015625h-0.015625-0.015625v-0.015625l0.015625-0.015625z"/>
  </symbol>
  <symbol id="v" overflow="visible">
   <path d="m0-0.03125h0.015625v0.015625l0.015625-0.015625v0.03125h-0.015625z"/>
  </symbol>
  <symbol id="u" overflow="visible">
   <path d="m0-0.03125h0.015625v0.03125h-0.015625zm0-0.015625h0.015625v0.015625h-0.015625z"/>
  </symbol>
  <symbol id="t" overflow="visible">
   <path d="m0.03125-0.046875v0.015625h-0.015625 0.015625-0.015625v0.03125h-0.015625v-0.03125l0.015625-0.015625z"/>
  </symbol>
  <symbol id="s" overflow="visible">
   <path d="m0.03125-0.03125h0.015625v0.015625 0.015625-0.015625-0.015625c-0.011719 0-0.015625 0.0078125-0.015625 0.015625v0.015625-0.015625h-0.015625v-0.015625 0.015625 0.015625h-0.015625v-0.03125h0.015625 0.015625z"/>
  </symbol>
  <symbol id="r" overflow="visible">
   <path d="m0.03125-0.015625v0.015625-0.015625h-0.015625v-0.015625 0.015625 0.015625h-0.015625v-0.046875h0.015625v0.015625h0.015625v0.015625z"/>
  </symbol>
  <symbol id="q" overflow="visible">
   <path d="m0-0.046875h0.015625l0.015625 0.03125v-0.03125h0.015625v0.046875h-0.015625l-0.015625-0.03125v0.03125h-0.015625z"/>
  </symbol>
  <symbol id="p" overflow="visible">
   <path d="m0-0.015625v-0.015625h0.015625v0.015625 0.015625l0.015625-0.015625v-0.015625 0.03125h-0.015625-0.015625v-0.015625z"/>
  </symbol>
  <symbol id="o" overflow="visible">
   <path d="m0-0.03125h0.015625v0.03125c0 0.0078125-0.0078125 0.015625-0.015625 0.015625zm0-0.015625h0.015625v0.015625h-0.015625z"/>
  </symbol>
  <symbol id="n" overflow="visible">
   <path d="m0.03125-0.03125v0.015625c0-0.0078125-0.0078125-0.015625-0.015625-0.015625v0.015625 0.015625h0.015625v-0.015625 0.015625h-0.015625-0.015625v-0.015625l0.015625-0.015625h0.015625z"/>
  </symbol>
 </defs>
 <g>
  <path d="m485.05 240.79c1.1719 0.57813 2.3008 1.1523 3.3945 1.7266 0.09375 0.042969 0.1875 0.089844 0.27344 0.14453 4.9492 2.6133 9.1055 5.2031 12.75 7.7812 3.6406 2.5742 6.7227 5.1016 9.543 7.6094 0.6875 0.53516 1.3711 1.082 2.0547 1.6406 15.453-4.3281 33.516-7.7773 51.082-6.4219 18.504 1.4258 36.398 8.1484 50.105 24.648l0.64453 0.77734v1.0078c0.007812 14.648-8.4258 34.621-20.91 50.262-10.414 13.039-23.719 23.191-37.473 25.016-0.40234 2.8242-0.86719 5.5859-1.3789 8.2891-5.0469 28.414-18.488 56.156-40.516 75.215-24.734 21.406-56.68 29.414-87.371 26.199-16.953-1.7773-33.531-6.9805-48.305-15.242-14.293-7.9961-26.902-18.859-36.531-32.254-5.2812-7.3438-9.6641-15.449-12.938-24.258-1.9961-5.3711-3.582-11.004-4.707-16.883-8.6172 17.949-22.078 31.004-37.977 39.438-75.285 39.938-170.5-19.422-150.31-112.3-11.227-3.5781-23.125-7.7617-32.645-13.859-10.031-6.4609-17.148-15.309-18.527-26.988-0.64844-5.4922-0.027344-4.7266 4.8398-5.2539 24.746-2.6797 36.57-8.0977 47.754-12.945 13.742-5.957 25.25-10.945 52.32-8.9844-10.168-30.473-16.922-53.398-15.824-74.488 1.1289-21.656 10.465-41.039 32.715-64.012l1.9492-2.0117 2 1.957c23.766 23.238 40.832 29.168 53.707 33.637 13.695 4.7578 22.988 7.9883 30.449 26.164 7.2812-11.738 19.723-27.199 38.742-37.707 44.223-24.441 109.11-10.305 137.06 32.387 16.941 25.871 20.992 59.852 14.027 89.719zm-266.8 165.61c0.91406 0.15625 1.5273 1.0234 1.3711 1.9375-0.15625 0.91406-1.0234 1.5273-1.9375 1.3711-28.926-5.0195-54.645-23.078-64.586-51.371-0.30469-0.875 0.15625-1.8281 1.0312-2.1328 0.875-0.30469 1.8281 0.15625 2.1328 1.0312 9.5273 27.125 34.281 44.359 61.988 49.164zm205.68 39.535c0.92188 0.09375 1.5898 0.91797 1.4961 1.8359-0.09375 0.92188-0.91797 1.5898-1.8359 1.4961-12.934-1.3555-25.578-5.3242-36.844-11.625-10.898-6.0977-20.508-14.375-27.848-24.586-0.53906-0.75-0.37109-1.7969 0.37891-2.3359 0.75-0.53906 1.7969-0.37109 2.3359 0.37891 7.0469 9.8008 16.281 17.754 26.758 23.617 10.871 6.082 23.074 9.9102 35.555 11.219zm18.223-302.06c-0.72266-0.57813-0.83984-1.6289-0.26172-2.3477 0.57812-0.72266 1.6289-0.83984 2.3477-0.26172 18.371 14.684 28.336 38.727 29.555 61.852 0.11328 2.2031-3.2344 2.3711-3.3477 0.17188-1.1641-22.125-10.707-45.355-28.293-59.414zm26.965 186.74c3.6367 3.9805 3.6367 10.379 0 14.359-3.6992 4.043-9.8359 4.043-13.535 0-3.6367-3.9805-3.6367-10.379 0-14.359 3.6992-4.043 9.8359-4.043 13.535 0zm-2.4688 2.2578c-2.375-2.5977-6.2227-2.5977-8.5977 0-2.4531 2.6836-2.4531 7.1602 0 9.8438 2.375 2.5977 6.2227 2.5977 8.5977 0 2.4531-2.6836 2.4531-7.1602 0-9.8438zm25.52 36.508c-0.74219 0.55078-1.793 0.39453-2.3438-0.34766-0.55078-0.74219-0.39453-1.793 0.34766-2.3438 18.609-13.754 16.836-43.637-0.66016-57.594-6.9648-5.5547-17.785-9.1797-26.527-6.2422-9.7148 3.2656-15.621 11.098-18.715 20.562-1.1367 3.4961-6.4531 1.7695-5.3164-1.7266 3.6719-11.238 10.766-20.266 22.258-24.129 46.434-12.523 75.992 50.805 43.336 74.008-1.3047 0.82812-3.0352 0.44141-3.8594-0.86328-0.82812-1.3047-0.44141-3.0352 0.86328-3.8594 20.062-12.754 11.363-52.016-12.547-62.258 0.89453 0.59375 1.7578 1.2227 2.5898 1.8867 19.23 15.34 20.93 47.859 0.57031 62.906zm-32.758 1.7188c-3.0742-2.0117-0.011719-6.6914 3.0625-4.6797 5.4141 3.543 11.973 6.3789 18.547 6.1953 3.668-0.10156 3.8203 5.4766 0.15234 5.5781-7.7617 0.21875-15.359-2.9023-21.762-7.0898zm-24-35.758c0.11328-3.668 5.6914-3.4922 5.5781 0.17578-0.23438 7.2305 3.3047 14.203 8.5625 19.023 2.7031 2.4883-1.0781 6.6016-3.7852 4.1133-6.4492-5.9141-10.645-14.465-10.355-23.312zm12.285 35.316c0.16406-1.5352 1.5391-2.6445 3.0742-2.4844 1.5352 0.16406 2.6445 1.5391 2.4844 3.0742-0.75391 6.9648 1.0586 12.035 4.1719 15.266 1.8672 1.9375 4.2188 3.2383 6.7695 3.9023 2.6016 0.67969 5.4141 0.69922 8.1445 0.066406 4.9492-1.1445 9.5977-4.457 12.211-9.9219 0.66406-1.3906 2.3281-1.9766 3.7188-1.3125 1.3906 0.66406 1.9766 2.3281 1.3125 3.7188-3.4062 7.1328-9.5 11.461-15.996 12.965-3.5898 0.83203-7.3164 0.79688-10.793-0.10938-3.5234-0.91797-6.7891-2.7305-9.3945-5.4336-4.1914-4.3477-6.6562-10.934-5.7031-19.727zm-13.898-61.582c1.5273-0.19141 2.9258 0.89063 3.1172 2.418 0.19141 1.5273-0.89062 2.9258-2.418 3.1172-2.4766 0.31641-7.6445 0.70312-9.2891 1.9922-5.3203 4.1758-0.67578 13-3.3984 20.809-1.5312 4.3867 12.023 4.1836 10.035 13.734-1.8008 8.6484 6.543 8.6875 13.176 10.84 1.4688 0.47266 2.2773 2.043 1.8047 3.5117-0.47266 1.4688-2.043 2.2773-3.5117 1.8047-10.969-3.5547-19.918-2.9766-16.941-17.293 0.83594-4.0117-13.43-4.1484-9.8398-14.434 3.082-8.832-4-16.133 5.2148-23.367 3.1836-2.5 8.7031-2.707 12.047-3.1289zm89.664 29.848c0.03125-1.5391 1.3047-2.7656 2.8438-2.7344 1.5391 0.03125 2.7656 1.3047 2.7344 2.8438-0.050781 2.4922-2.2109 5.6211 0.70703 7.1875 18.211 9.7578 9.5352 29.863-6.4531 37.902-9.2891 4.6719-21.59 6.7422-29.996-0.82813-1.1484-1.0312-1.2422-2.8008-0.20703-3.9492 1.0312-1.1484 2.8008-1.2422 3.9492-0.20703 6.5352 5.8867 16.652 3.5625 23.738-0.003906 11.449-5.7578 20.602-20.352 6.3438-27.996-7.3125-3.918-3.7617-7.3633-3.6602-12.219zm-22.266-47.543c-0.26562 1.5234-1.7148 2.5391-3.2383 2.2734-1.5234-0.26563-2.5391-1.7148-2.2734-3.2383 2.5742-14.469 18.574-11.719 25.41-2.0234 5.2539 7.4531 12.473 9.9062 16.449 18.023 7.3516 15.004-8.4297 12.223-8.8398 25.066v0.039063c-0.046875 1.5391-1.3359 2.75-2.875 2.7031-1.5391-0.046875-2.75-1.3359-2.7031-2.875v-0.039062c0.55469-17.391 14.703-11.633 9.4062-22.441-3.2617-6.6523-10.98-10.125-16.012-17.258-3.7852-5.3711-13.668-9.5586-15.324-0.23047zm-62.77 12.094c0.76562 1.3359 0.30859 3.0391-1.0273 3.8047-1.3359 0.76562-3.0391 0.30859-3.8047-1.0273-3.4297-5.9727-3.5742-14.148-1.3633-20.523 6.2227-17.961 34.219-26.676 50.137-16.645 7.4375 4.6875 10.543 12.422 10.543 20.914 0 1.5469-1.2539 2.8008-2.8008 2.8008s-2.8008-1.2539-2.8008-2.8008c0-6.5273-2.1484-12.551-7.918-16.188-12.863-8.1055-36.852-0.80859-41.891 13.734-1.6602 4.7852-1.668 11.41 0.92578 15.93zm-227.97-35.789c-0.11328 0.92187-0.94922 1.5742-1.8711 1.4648-0.92188-0.11328-1.5742-0.94922-1.4648-1.8711 2.8711-23.277 56.277-24.93 59.957-1.293 0.14062 0.91406-0.48438 1.7695-1.3984 1.9102-0.91406 0.14062-1.7695-0.48438-1.9102-1.3984-3.0742-19.754-50.922-18.211-53.312 1.1875zm-9.0078 9.0625c-3.0039-2.0977 0.19141-6.668 3.1953-4.5703 6.1797 4.3164 15.203 5.9023 22.609 5.9023 3.6836 0 3.6836 5.6016 0 5.6016-8.6055 0-18.645-1.9297-25.805-6.9336zm68.324-7.1992c1.8672-3.1602 6.6797-0.31641 4.8125 2.8438-3.7812 6.3672-16.945 9.5703-23.875 9.3711-3.668-0.10156-3.5156-5.6797 0.15234-5.5781 4.707 0.13672 16.328-2.293 18.91-6.6367zm-2.75-22.922c-1.1797-0.99609-1.3242-2.7578-0.32812-3.9375 0.99609-1.1797 2.7578-1.3242 3.9375-0.32812 1.6719 1.418 3.1328 3.0703 4.4414 5.043 1.2656 1.9062 2.3867 4.1094 3.4258 6.707 0.57422 1.4297-0.12109 3.0586-1.5547 3.6328-1.4297 0.57422-3.0586-0.12109-3.6328-1.5547-0.89453-2.2344-1.8438-4.1094-2.9023-5.6992-1.0117-1.5234-2.125-2.7852-3.3906-3.8594zm-44.328-6.3633c-3.4805 1.1523-5.2305-4.1445-1.75-5.293 10.191-3.3906 20.145-3.8516 30.664-1.7969 1.5156 0.29688 2.5039 1.7656 2.2109 3.2812-0.29688 1.5156-1.7656 2.5039-3.2812 2.2109-9.5781-1.875-18.559-1.4883-27.84 1.5977zm-21.406 24.07c-0.93359 3.5547-6.3398 2.1328-5.4023-1.4219 1.75-6.5625 4.4688-13.406 9.2266-18.383 2.5312-2.6484 6.5586 1.2031 4.0234 3.8516-4.0508 4.2305-6.3633 10.375-7.8516 15.953zm-3.1641 8.0039-1.2031 3.6641c-6.3945 19.484 18.688 19.672 30.945 10.898 7.6719-5.4922 12.836-4.3164 21.148-2.7695 8.9688 1.668 22.605 4.2109 27.027 0.86328 3.4023-2.5742 2.5781-7.0078 1.7148-11.652-1.7617-9.4844-1.7148-11.895 7.543-18.574 4.2305-3.0547 5.75-3.4688 1.5352-7.6445-2.0938-2.0742-5.0391-4.1211-7.9883-5.7461-0.050781-0.023438-0.097656-0.050782-0.14453-0.078125-7.4648-4.1914-8.9492-3.7578-11.629-3.6328-2.5469 0.95312-6.8164 1.832-9.1875-5.4258-0.40234-1.543-2.0273-3.3516-5.4102-4.8164-9.6992-4.2031-17.551-0.60547-29.043-7.0078-6.0234 4.1094-6.3555 6.4336-6.7656 9.332-0.26172 1.8633-0.55078 3.9023-1.6562 6.4648-1.6836 3.9141-1.5195 3.4375-5.7969 3.6094-1.457 0.058594-2.6719 0.035156-3.7734 0.015625-3.0742-0.054687-5.0195-0.089843-9.6055 2.5898-0.35547 0.20703-5.75 4.8945-9.7578 9.793-1.8945 2.3125-4.8867 4.9961-2.4102 6.4805 8.2969 4.9688 2.8477 8.2148 6.6758 12.008 2.1523 2.1328 5.0273 1.6328 7.7734 1.6328zm-7.332 5.0195c-1.6406-0.54687-3.1484-1.4727-4.3789-2.6953-5.0781-5.0312-1.0469-8.4492-5.6016-11.176-2.2305-1.3359-4.1914-2.5078-3.8555-5.7852 0.27734-2.707 2.2773-5.9414 4.8008-9.0312 0.28516-0.34766 0.57812-0.69531 0.875-1.043-21.801 11.359-35.332 33.367-40.711 56.867-19.082 88.18 71.227 143.72 142.27 106.04 17.254-9.1523 31.449-24.125 39.062-45.324-2.2266-22.691 1.1797-43.664 8.8008-61.945-1.6914-12.938-8.3281-26.336-17.789-37.52-5.7227-6.7617-12.461-12.695-19.75-17.211 1.8945 5.1797-2.2109 8.0547-5.957 10.758-6.7188 4.8516-6.7422 5.332-5.3086 13.043 1.1836 6.375 2.3164 12.465-3.8398 17.121-6.375 4.8242-21.473 2.0117-31.402 0.16406-6.6562-1.2383-10.832-2.5-16.883 1.832-15.352 10.992-44.938 9.2188-40.336-14.09zm5.5742-41.52c3.7109-1.6797 5.9805-1.6367 9.1719-1.582 5.0469 0.089844 4.8438 0.085938 5.6055-5.2773 0.64062-4.5352 1.1445-8.1055 10.68-14.18 1.4492-0.92578 2.1836-0.50781 3.4766 0.24219 11.168 6.4688 18.984 2.7461 29.395 7.2578 4.1406 1.7969 6.3828 4.543 7.1836 7.1641 1.4883 4.8711 3.4648 3.5586 6.1914 3.1758 2.9414-0.41406 6.4961 0.0625 13.129 3.6523 0.25781 0.078125 0.51563 0.16016 0.77344 0.24219-4.5273-23.047 0.27344-51.898 9.8945-73.199-6.9141-20.188-15.578-23.199-28.902-27.828-13.023-4.5234-30.176-10.48-53.758-32.949-19.816 21.004-28.191 38.777-29.215 58.391-1.0664 20.473 5.7891 43.285 16.023 73.879 0.14453 0.43359 0.26172 0.75391 0.35938 1.0117zm146.66-56.613c4.8945 10.234 1.5312 23.805-7.5703 30.57-9.4258 7.0078-21.445 4.0234-26.512-6.5703-4.8945-10.23-1.5312-23.805 7.5703-30.57 9.4258-7.0078 21.445-4.0234 26.512 6.5703zm-5.0312 2.4062c-3.5508-7.4258-11.555-9.3984-18.156-4.4922-6.9453 5.1641-9.5977 15.875-5.8633 23.68 3.5508 7.4258 11.555 9.3984 18.156 4.4922 6.9453-5.1641 9.5977-15.875 5.8633-23.68zm-49.762 57.281c11.348 4.9844 21.883 13.273 30.301 23.223 8.2383 9.7344 14.48 21.102 17.508 32.551 8.457-16.453 20.492-30.355 34.914-40.883 16.199-11.824 35.402-19.375 55.918-21.48 17.043-1.7461 34.984 0.25781 52.852 6.6914 6.4688-28.262 2.6406-60.418-13.379-84.883-26.355-40.25-88.031-53.57-129.69-30.547-17.277 9.5508-28.848 23.473-35.855 34.441-12.422 21.844-18.707 56.289-12.57 80.883zm-150.35 58.844c2.2539-7.9805 5.2852-15.273 8.9297-21.836-15.805 0.625-31.707-0.72266-46.723-5.957-2.082-0.72656-0.97656-3.8867 1.1016-3.1641 15.316 5.3398 31.539 6.4922 47.637 5.6758 8.5547-13.949 20.824-25.531 35.957-32.035-22.207-0.92578-32.516 3.543-44.664 8.8125-11.391 4.9375-24.336 10.551-49.203 13.359 1.2422 9.5938 7.4805 16.586 15.941 22.008 8.875 5.6836 20.234 9.6953 31.02 13.141zm415.68 2.6719c-0.91016 0.16406-1.7812-0.44141-1.9414-1.3516-0.16406-0.91016 0.44141-1.7812 1.3516-1.9414 16.18-2.8945 25.688-6.6211 35.57-10.492 1.6289-0.63672 3.2695-1.2812 4.6641-1.8164 0.86719-0.32812 1.8359 0.10547 2.1641 0.97266 0.32812 0.86719-0.10547 1.8359-0.97266 2.1641-1.7578 0.67578-3.2031 1.2383-4.6367 1.8008-10.023 3.9258-19.664 7.7031-36.199 10.66zm-284.55-75.348c0.59375 0.71094 0.5 1.7695-0.21094 2.3633-0.71094 0.59375-1.7695 0.5-2.3633-0.21094-6.4414-7.6992-12.82-14.016-18.852-19.988-20.395-20.203-36.906-36.559-39.184-87.98-0.039062-0.92578 0.67578-1.707 1.6016-1.7461 0.92578-0.039063 1.707 0.67578 1.7461 1.6016 2.2227 50.109 18.316 66.055 38.199 85.746 6.0977 6.0391 12.543 12.426 19.059 20.211zm59.855 140.19c0.003906 0.039063 0.007812 0.078125 0.007812 0.11719 0.875 9.1094 2.875 17.652 5.8242 25.586 3.0977 8.332 7.2422 16 12.238 22.945 9.1406 12.715 21.121 23.031 34.719 30.637 14.113 7.8945 29.953 12.867 46.16 14.562 29.25 3.0664 59.656-4.5352 83.148-24.863 21.289-18.422 33.367-44.449 38.602-71.598 3.2812-18.102 1.0938-34.883-4.3984-49.746-7.1406-19.324-19.852-35.434-33.41-47.035l-0.37891 0.10938-1.1641-1.0938c-0.90234-0.84375-1.8203-1.6914-2.7617-2.5352-0.21484-0.16406-0.42578-0.33203-0.64062-0.49609l0.035156-0.042969c-2.5859-2.2812-5.3789-4.5586-8.5977-6.8359-3.4336-2.4297-7.3867-4.8867-12.137-7.3906-19.781-8.75-39.82-11.652-58.676-9.7188-19.527 2.0039-37.797 9.1836-53.203 20.43-15.402 11.242-27.953 26.562-36.047 44.84-7.8711 17.785-11.516 38.367-9.4531 60.727l0.074219 0.77734c0.019531 0.20703 0.039062 0.41406 0.0625 0.61719zm189.31-101.18c13.145 11.941 25.234 27.938 32.238 46.895 4.3359 11.73 6.7227 24.594 6.2148 38.32 11.883-1.918 23.602-11.094 32.977-22.832 11.477-14.375 19.324-32.422 19.695-45.781-12.492-14.57-28.742-20.559-45.574-21.855-15.453-1.1914-31.441 1.543-45.551 5.25z"/>
  <use x="70" y="560.167969" xlink:href="#x"/>
  <use x="70.042969" y="560.167969" xlink:href="#c"/>
  <use x="70.070312" y="560.167969" xlink:href="#a"/>
  <use x="70.105469" y="560.167969" xlink:href="#b"/>
  <use x="70.144531" y="560.167969" xlink:href="#e"/>
  <use x="70.171875" y="560.167969" xlink:href="#a"/>
  <use x="70.210938" y="560.167969" xlink:href="#i"/>
  <use x="70.269531" y="560.167969" xlink:href="#m"/>
  <use x="70.308594" y="560.167969" xlink:href="#h"/>
  <use x="70.363281" y="560.167969" xlink:href="#l"/>
  <use x="70.414063" y="560.167969" xlink:href="#w"/>
  <use x="70.433594" y="560.167969" xlink:href="#a"/>
  <use x="70.46875" y="560.167969" xlink:href="#k"/>
  <use x="70.507812" y="560.167969" xlink:href="#g"/>
  <use x="70.539062" y="560.167969" xlink:href="#b"/>
  <use x="70.578125" y="560.167969" xlink:href="#f"/>
  <use x="70.617188" y="560.167969" xlink:href="#i"/>
  <use x="70.65625" y="560.167969" xlink:href="#c"/>
  <use x="70.707031" y="560.167969" xlink:href="#j"/>
  <use x="70.746094" y="560.167969" xlink:href="#b"/>
  <use x="70.785156" y="560.167969" xlink:href="#f"/>
  <use x="70.824219" y="560.167969" xlink:href="#b"/>
  <use x="70.863281" y="560.167969" xlink:href="#g"/>
  <use x="70.894531" y="560.167969" xlink:href="#d"/>
  <use x="70.933594" y="560.167969" xlink:href="#v"/>
  <use x="70.96875" y="560.167969" xlink:href="#g"/>
  <use x="71.003906" y="560.167969" xlink:href="#k"/>
  <use x="71.039062" y="560.167969" xlink:href="#h"/>
  <use x="71.078125" y="560.167969" xlink:href="#u"/>
  <use x="70" y="560.222656" xlink:href="#t"/>
  <use x="70.023438" y="560.222656" xlink:href="#c"/>
  <use x="70.050781" y="560.222656" xlink:href="#d"/>
  <use x="70.089844" y="560.222656" xlink:href="#s"/>
  <use x="70.167969" y="560.222656" xlink:href="#e"/>
  <use x="70.195313" y="560.222656" xlink:href="#r"/>
  <use x="70.234375" y="560.222656" xlink:href="#a"/>
  <use x="70.292969" y="560.222656" xlink:href="#q"/>
  <use x="70.339844" y="560.222656" xlink:href="#d"/>
  <use x="70.378906" y="560.222656" xlink:href="#p"/>
  <use x="70.417969" y="560.222656" xlink:href="#f"/>
  <use x="70.476562" y="560.222656" xlink:href="#j"/>
  <use x="70.519531" y="560.222656" xlink:href="#c"/>
  <use x="70.546875" y="560.222656" xlink:href="#d"/>
  <use x="70.585938" y="560.222656" xlink:href="#o"/>
  <use x="70.601562" y="560.222656" xlink:href="#a"/>
  <use x="70.640625" y="560.222656" xlink:href="#n"/>
  <use x="70.675781" y="560.222656" xlink:href="#e"/>
 </g>
</svg>
