<svg xmlns="http://www.w3.org/2000/svg" xmlns:xlink="http://www.w3.org/1999/xlink" id="exportSvg" width="600" height="400"><defs/><g><g id="__svelte-dw-svg" clip-path="url(#rect-mask-u-EY5hGP1yAYmnhi5Ea1p)"><clipPath id="rect-mask-u-EY5hGP1yAYmnhi5Ea1p"><rect x="0" y="0" width="600" height="400"/></clipPath><g id="outer-container-svg dw-chart-styles-svg datawrapper-G3aPR-cadg66-svg svelte-crzbxb-svg static-svg" clip-path="url(#rect-mask-qKrn35-kn1tnvv_LjnPAc)"><clipPath id="rect-mask-qKrn35-kn1tnvv_LjnPAc"><rect x="0" y="0" width="600" height="400"/></clipPath><g id="chart-svg"><g id="svg-main-svg" clip-path="url(#rect-mask-69FJaSJ9VjWCIrZXXP2wq)"><clipPath id="rect-mask-69FJaSJ9VjWCIrZXXP2wq"><rect x="0" y="0" width="600" height="400"/></clipPath><g id="group-svg" transform="translate(34.21484, 6)"><g id="x-grid-svg"/><g id="y-grid-svg"><g id="y-grid-lines-svg grid-y-svg datawrapper-G3aPR-1fn7900-svg"><line x1="0" x2="525.78515625" y1="0" y2="0" transform="translate(0, 4.4549)" style="fill: none; stroke-width: 1; stroke-linejoin: miter; stroke-linecap: butt; stroke: rgb(231, 231, 231);"/><line x1="0" x2="525.78515625" y1="0" y2="0" transform="translate(0, 38.04991)" style="fill: none; stroke-width: 1; stroke-linejoin: miter; stroke-linecap: butt; stroke: rgb(231, 231, 231);"/><line x1="0" x2="525.78515625" y1="0" y2="0" transform="translate(0, 71.64492)" style="fill: none; stroke-width: 1; stroke-linejoin: miter; stroke-linecap: butt; stroke: rgb(231, 231, 231);"/><line x1="0" x2="525.78515625" y1="0" y2="0" transform="translate(0, 105.23993)" style="fill: none; stroke-width: 1; stroke-linejoin: miter; stroke-linecap: butt; stroke: rgb(231, 231, 231);"/><line x1="0" x2="525.78515625" y1="0" y2="0" transform="translate(0, 138.83494)" style="fill: none; stroke-width: 1; stroke-linejoin: miter; stroke-linecap: butt; stroke: rgb(231, 231, 231);"/><line x1="0" x2="525.78515625" y1="0" y2="0" transform="translate(0, 172.42995)" style="fill: none; stroke-width: 1; stroke-linejoin: miter; stroke-linecap: butt; stroke: rgb(231, 231, 231);"/><line x1="0" x2="525.78515625" y1="0" y2="0" transform="translate(0, 206.02496)" style="fill: none; stroke-width: 1; stroke-linejoin: miter; stroke-linecap: butt; stroke: rgb(231, 231, 231);"/><line x1="0" x2="525.78515625" y1="0" y2="0" transform="translate(0, 239.61996)" style="fill: none; stroke-width: 1; stroke-linejoin: miter; stroke-linecap: butt; stroke: rgb(231, 231, 231);"/><line x1="0" x2="525.78515625" y1="0" y2="0" transform="translate(0, 273.21497)" style="fill: none; stroke-width: 1; stroke-linejoin: miter; stroke-linecap: butt; stroke: rgb(231, 231, 231);"/><line x1="0" x2="525.78515625" y1="0" y2="0" transform="translate(0, 306.80998)" style="fill: none; stroke-width: 1; stroke-linejoin: miter; stroke-linecap: butt; stroke: rgb(231, 231, 231);"/><line x1="0" x2="525.78515625" y1="0" y2="0" transform="translate(0, 340.40499)" style="fill: none; stroke-width: 1; stroke-linejoin: miter; stroke-linecap: butt; stroke: rgb(231, 231, 231);"/></g></g><path d="M9.63355544406439,374L72.90497452613671,374L72.90497452613671,374L136.17639360820903,374L136.17639360820903,374L199.44781269028135,374L199.44781269028135,374L262.8925781260032,374L262.8925781260032,374L326.16399720807544,374L326.16399720807544,374L389.4354162901478,374L389.4354162901478,374L452.7068353722201,374L452.7068353722201,374L516.1516008079419,374L516.1516008079419,374L516.1516008079419,0L516.1516008079419,39.638737456093054L452.7068353722201,39.638737456093054L452.7068353722201,32.25467210233915L389.4354162901478,32.25467210233915L389.4354162901478,104.59736451108245L326.16399720807544,104.59736451108245L326.16399720807544,138.04067505810704L262.8925781260032,138.04067505810704L262.8925781260032,125.75972059228793L199.44781269028135,125.75972059228793L199.44781269028135,161.30335077605952L136.17639360820903,161.30335077605952L136.17639360820903,166.25517108702877L72.90497452613671,166.25517108702877L72.90497452613671,200.21857604393279L9.63355544406439,200.21857604393279Z" style="fill: rgb(188, 189, 220); opacity: 0.4;"/><g id="lines-svg"><g id="Value-svg"><path d="M9.63355544406439,200.21857604393279L72.90497452613671,200.21857604393279L72.90497452613671,166.25517108702877L136.17639360820903,166.25517108702877L136.17639360820903,161.30335077605952L199.44781269028135,161.30335077605952L199.44781269028135,125.75972059228793L262.8925781260032,125.75972059228793L262.8925781260032,138.04067505810704L326.16399720807544,138.04067505810704L326.16399720807544,104.59736451108245L389.4354162901478,104.59736451108245L389.4354162901478,32.25467210233915L452.7068353722201,32.25467210233915L452.7068353722201,39.638737456093054L516.1516008079419,39.638737456093054L516.1516008079419,0" stroke="rgb(117,107,177)" id="Value" style="fill: none; stroke-width: 3; stroke-linejoin: round; stroke-linecap: round; stroke: rgb(117, 107, 177);"/></g></g><g id="line-symbols-svg"/><g id="x-grid-svg"><g id="x-tick-labels-svg date-axis-svg grid-x-svg datawrapper-G3aPR-63wp0p-svg" transform="translate(0, 379)"><text transform="translate(9.63356, 12) translate(-13.47656, 0) translate(13.4765625, 0)" style="text-anchor: middle;"><tspan fill="rgb(116, 116, 116)" style="font-family: Roboto; font-weight: 400; font-stretch: 100%; font-size: 12px;" x="0" dominant-baseline="auto" y="0">2013</tspan></text><text transform="translate(72.90497, 12) translate(-13.60742, 0) translate(13.607421875, 0)" style="text-anchor: middle;"><tspan fill="rgb(116, 116, 116)" style="font-family: Roboto; font-weight: 400; font-stretch: 100%; font-size: 12px;" x="0" dominant-baseline="auto" y="0">2014</tspan></text><text transform="translate(136.17639, 12) translate(-13.60742, 0) translate(13.607421875, 0)" style="text-anchor: middle;"><tspan fill="rgb(116, 116, 116)" style="font-family: Roboto; font-weight: 400; font-stretch: 100%; font-size: 12px;" x="0" dominant-baseline="auto" y="0">2015</tspan></text><text transform="translate(199.44781, 12) translate(-13.60742, 0) translate(13.607421875, 0)" style="text-anchor: middle;"><tspan fill="rgb(116, 116, 116)" style="font-family: Roboto; font-weight: 400; font-stretch: 100%; font-size: 12px;" x="0" dominant-baseline="auto" y="0">2016</tspan></text><text transform="translate(262.89258, 12) translate(-13.60742, 0) translate(13.607421875, 0)" style="text-anchor: middle;"><tspan fill="rgb(116, 116, 116)" style="font-family: Roboto; font-weight: 400; font-stretch: 100%; font-size: 12px;" x="0" dominant-baseline="auto" y="0">2017</tspan></text><text transform="translate(326.164, 12) translate(-13.60742, 0) translate(13.607421875, 0)" style="text-anchor: middle;"><tspan fill="rgb(116, 116, 116)" style="font-family: Roboto; font-weight: 400; font-stretch: 100%; font-size: 12px;" x="0" dominant-baseline="auto" y="0">2018</tspan></text><text transform="translate(389.43542, 12) translate(-13.47656, 0) translate(13.4765625, 0)" style="text-anchor: middle;"><tspan fill="rgb(116, 116, 116)" style="font-family: Roboto; font-weight: 400; font-stretch: 100%; font-size: 12px;" x="0" dominant-baseline="auto" y="0">2019</tspan></text><text transform="translate(452.70684, 12) translate(-13.60742, 0) translate(13.607421875, 0)" style="text-anchor: middle;"><tspan fill="rgb(116, 116, 116)" style="font-family: Roboto; font-weight: 400; font-stretch: 100%; font-size: 12px;" x="0" dominant-baseline="auto" y="0">2020</tspan></text><text transform="translate(516.1516, 12) translate(-13.47656, 0) translate(13.4765625, 0)" style="text-anchor: middle;"><tspan fill="rgb(116, 116, 116)" style="font-family: Roboto; font-weight: 400; font-stretch: 100%; font-size: 12px;" x="0" dominant-baseline="auto" y="0">2021</tspan></text></g></g><g id="y-grid-svg"><g id="y-tick-labels-svg number-axis-svg grid-y-svg datawrapper-G3aPR-yhj5g2-svg" transform="translate(-5, 0)"><text transform="translate(0, 378) translate(-7, 0) translate(7, 0)" style="text-anchor: end;"><tspan fill="rgb(162, 162, 162)" style="font-family: Roboto; font-weight: 400; font-stretch: 100%; font-size: 12px;" x="0" dominant-baseline="auto" y="0">0</tspan></text><text transform="translate(0, 344.40499) translate(-28.21484, 0) translate(28.21484375, 0)" style="text-anchor: end;"><tspan fill="rgb(162, 162, 162)" style="font-family: Roboto; font-weight: 400; font-stretch: 100%; font-size: 12px;" x="0" dominant-baseline="auto" y="0">100K</tspan></text><text transform="translate(0, 310.80998) translate(-28.21484, 0) translate(28.21484375, 0)" style="text-anchor: end;"><tspan fill="rgb(162, 162, 162)" style="font-family: Roboto; font-weight: 400; font-stretch: 100%; font-size: 12px;" x="0" dominant-baseline="auto" y="0">200K</tspan></text><text transform="translate(0, 277.21497) translate(-28.21484, 0) translate(28.21484375, 0)" style="text-anchor: end;"><tspan fill="rgb(162, 162, 162)" style="font-family: Roboto; font-weight: 400; font-stretch: 100%; font-size: 12px;" x="0" dominant-baseline="auto" y="0">300K</tspan></text><text transform="translate(0, 243.61996) translate(-28.21484, 0) translate(28.21484375, 0)" style="text-anchor: end;"><tspan fill="rgb(162, 162, 162)" style="font-family: Roboto; font-weight: 400; font-stretch: 100%; font-size: 12px;" x="0" dominant-baseline="auto" y="0">400K</tspan></text><text transform="translate(0, 210.02496) translate(-28.21484, 0) translate(28.21484375, 0)" style="text-anchor: end;"><tspan fill="rgb(162, 162, 162)" style="font-family: Roboto; font-weight: 400; font-stretch: 100%; font-size: 12px;" x="0" dominant-baseline="auto" y="0">500K</tspan></text><text transform="translate(0, 176.42995) translate(-28.21484, 0) translate(28.21484375, 0)" style="text-anchor: end;"><tspan fill="rgb(162, 162, 162)" style="font-family: Roboto; font-weight: 400; font-stretch: 100%; font-size: 12px;" x="0" dominant-baseline="auto" y="0">600K</tspan></text><text transform="translate(0, 142.83494) translate(-28.21484, 0) translate(28.21484375, 0)" style="text-anchor: end;"><tspan fill="rgb(162, 162, 162)" style="font-family: Roboto; font-weight: 400; font-stretch: 100%; font-size: 12px;" x="0" dominant-baseline="auto" y="0">700K</tspan></text><text transform="translate(0, 109.23993) translate(-28.21484, 0) translate(28.21484375, 0)" style="text-anchor: end;"><tspan fill="rgb(162, 162, 162)" style="font-family: Roboto; font-weight: 400; font-stretch: 100%; font-size: 12px;" x="0" dominant-baseline="auto" y="0">800K</tspan></text><text transform="translate(0, 75.64492) translate(-28.21484, 0) translate(28.21484375, 0)" style="text-anchor: end;"><tspan fill="rgb(162, 162, 162)" style="font-family: Roboto; font-weight: 400; font-stretch: 100%; font-size: 12px;" x="0" dominant-baseline="auto" y="0">900K</tspan></text><text transform="translate(0, 42.04991) translate(-17.21875, 0) translate(17.21875, 0)" style="text-anchor: end;"><tspan fill="rgb(162, 162, 162)" style="font-family: Roboto; font-weight: 400; font-stretch: 100%; font-size: 12px;" x="0" dominant-baseline="auto" y="0">1M</tspan></text><text transform="translate(0, 8.4549) translate(-27.125, 0) translate(27.125, 0)" style="text-anchor: end;"><tspan fill="rgb(162, 162, 162)" style="font-family: Roboto; font-weight: 400; font-stretch: 100%; font-size: 12px;" x="0" dominant-baseline="auto" y="0">1.1M</tspan></text></g><g id="y-base-lines-svg grid-y-svg datawrapper-G3aPR-1io9s9d-svg"><line x1="525.78515625" x2="0" y1="0" y2="0" transform="translate(0, 374)" style="fill: none; stroke-width: 1; stroke-linejoin: miter; stroke-linecap: square; stroke: rgb(24, 24, 24);"/></g></g></g></g><text transform="translate(559.984375, 1)" id="Value"><tspan fill="rgb(24,24,24)" x="0" y="12" style="font-family: Roboto; font-weight: 400; font-stretch: 100%; font-size: 12px;">Value</tspan></text><g id="tooltip-layer-svg" clip-path="url(#rect-mask-Rmp2Ye98iQBuSmJcH66Jf)"><clipPath id="rect-mask-Rmp2Ye98iQBuSmJcH66Jf"><rect x="0" y="0" width="600" height="400"/></clipPath><g id="group-svg" transform="translate(34.21484, 6)"/></g></g></g></g></g></svg>